General Info

Complete name                            : The Conspirator 2011 DVDRip Xvid AC3 - DiVERSiTY.avi
Format                                   : AVI
Format/Info                              : Audio Video Interleave
Format profile                           : OpenDML
Format settings                          : rec
File size                                : 2.04 GiB
Duration                                 : 1h 57mn
Overall bit rate                         : 2 492 Kbps
Writing application                      : AVI-Mux GUI 1.17.8.3, Feb 16 201019:42:50
Source                                   : DVD-R...DVDMANIA...Thx
Encoder                                  : MGW012

Video

ID                                       : 0
Format                                   : MPEG-4 Visual
Format profile                           : Advanced Simple@L5
Format settings, BVOP                    : 2
Format settings, QPel                    : No
Format settings, GMC                     : No warppoints
Format settings, Matrix                  : Default (H.263)
Codec ID                                 : XVID
Codec ID/Hint                            : XviD
Duration                                 : 1h 57mn
Bit rate                                 : 2 039 Kbps
Width                                    : 720 pixels
Height                                   : 400 pixels
Display aspect ratio                     : 16:9
Frame rate                               : 25.000 fps
Color space                              : YUV
Chroma subsampling                       : 4:2:0
Bit depth                                : 8 bits
Scan type                                : Progressive
Compression mode                         : Lossy
Bits/(Pixel*Frame)                       : 0.283
Stream size                              : 1.67 GiB (82%)
Writing library                          : XviD 1.2.1 (UTC 2008-12-04)

Audio

ID                                       : 1
Format                                   : AC-3
Format/Info                              : Audio Coding 3
Mode extension                           : CM (complete main)
Codec ID                                 : 2000
Duration                                 : 1h 57mn
Bit rate mode                            : Constant
Bit rate                                 : 448 Kbps
Channel(s)                               : 6 channels
Channel positions                        : Front: L C R, Side: L R, LFE
Sampling rate                            : 48.0 KHz
Bit depth                                : 16 bits
Compression mode                         : Lossy
Stream size                              : 376 MiB (18%)
Alignment                                : Aligned on interleaves
Interleave, duration                     : 64 ms (1.60 video frames)
Interleave, preload duration             : 192 ms
Title                                    : VTS_02_1 T80 3_2ch 448Kbps DELAY 0ms_new


iMDB RATING:7.0/10
IMDB Link:http://www.imdb.com/title/tt0968264/

James McAvoy  ...  Frederick Aiken  
Robin Wright  ...  Mary Surratt  
Kevin Kline  ...  Edwin Stanton  
Evan Rachel Wood  ...  Anna Surratt  
Tom Wilkinson  ...  Reverdy Johnson  
Justin Long  ...  Nicholas Baker  
Danny Huston  ...  Joseph Holt  
James Badge Dale  ...  William Hamilton  
Colm Meaney  ...  David Hunter  
Alexis Bledel  ...  Sarah Weston  
Johnny Simmons  ...  John Surratt  
Toby Kebbell  ...  John Wilkes Booth  
Jonathan Groff  ...  Louis Weichmann  
Stephen Root  ...  John Lloyd  
John Cullum  ...  Judge Wylie  
   
Mary Surratt is the lone female charged as a co-conspirator in the assassination trial of Abraham Lincoln. As the whole nation

turns against her, she is forced to rely on her reluctant lawyer to uncover the truth and save her life.